<svg width="44" height="77" viewBox="0 0 44 77" fill="none" xmlns="http://www.w3.org/2000/svg">
<path d="M32.7286 19.8259C29.9165 14.1514 27.134 9.19892 25.2954 6.04354C24.2094 4.18204 23.3592 2.77909 22.8345 1.92973C21.8665 0.363187 21.8618 0.373928 21.7571 0.364014C21.6666 0.366492 21.6541 0.366493 20.6868 1.94295C20.1645 2.79479 19.3135 4.20517 18.2236 6.08733C16.3866 9.25924 13.6064 14.2389 10.7919 19.9383C5.86868 29.9093 0 43.8421 0 53.6032C0 59.7545 2.26331 65.5406 6.37459 69.8899C10.4843 74.24 15.9501 76.6361 21.7626 76.6361C33.7631 76.6361 43.5268 66.304 43.5268 53.6032C43.526 43.6884 37.6534 29.7614 32.7286 19.8259ZM35.0169 50.8039C34.5844 53.8073 33.2626 55.6126 31.7488 57.3493C28.4105 61.026 24.3983 63.6824 21.8454 66.1652C19.2705 63.9179 17.9902 63.204 15.9626 61.34C14.0522 59.5818 11.8779 57.7476 10.382 55.539C8.9338 53.3991 7.75725 49.6381 8.67226 46.2274C9.42253 43.4289 11.493 41.194 14.9563 40.9593C19.187 40.9131 20.8172 43.9222 21.7938 46.1729C22.7822 43.966 24.1188 41.2667 28.1809 40.9593C30.5286 40.937 32.1837 41.9401 33.2587 43.0877C34.9506 44.8972 35.4752 47.6254 35.0169 50.8039Z" fill="#319795"/>
</svg>
