<?xml version="1.0" encoding="UTF-8" standalone="no"?>
<svg xmlns="http://www.w3.org/2000/svg" viewBox="0 0 100 100">
<path style="fill:#319795;" d="M67.921,28.517c-3.602-6.868-7.166-12.862-9.521-16.681c-1.391-2.253-2.48-3.951-3.152-4.979   c-1.24-1.896-1.246-1.883-1.38-1.895c-0.116,0.003-0.132,0.003-1.371,1.911c-0.669,1.031-1.759,2.738-3.155,5.016   c-2.353,3.839-5.914,9.866-9.519,16.764C33.517,40.721,26,57.584,26,69.398c0,7.445,2.899,14.448,8.165,19.712   c5.264,5.265,12.265,8.165,19.71,8.165c15.371,0,27.877-12.505,27.877-27.877C81.751,57.398,74.229,40.542,67.921,28.517z    M70.852,66.01c-0.554,3.635-2.247,5.82-4.186,7.922c-4.276,4.45-9.415,7.665-12.685,10.67c-3.298-2.72-4.938-3.584-7.535-5.84   c-2.447-2.128-5.232-4.348-7.148-7.021c-1.855-2.59-3.362-7.142-2.19-11.27c0.961-3.387,3.613-6.092,8.049-6.376   c5.419-0.056,7.507,3.586,8.758,6.31c1.266-2.671,2.978-5.938,8.181-6.31c3.007-0.027,5.127,1.187,6.504,2.576   C70.767,58.861,71.439,62.163,70.852,66.01z"></path>
</svg>